<svg xmlns="http://www.w3.org/2000/svg" width="64.734" height="92.086" viewBox="0 0 64.734 92.086">
  <path id="Icon_awesome-lightbulb" data-name="Icon awesome-lightbulb" d="M17.666,81.716a5.668,5.668,0,0,0,.986,3.182l3.143,4.62a5.919,5.919,0,0,0,4.9,2.568H38.042a5.919,5.919,0,0,0,4.9-2.568l3.143-4.62a5.663,5.663,0,0,0,.986-3.182l.007-6.9H17.657l.009,6.9ZM0,31.654A31.082,31.082,0,0,0,8.011,52.477c3.038,3.39,7.79,10.473,9.6,16.447.007.047.013.094.02.14H47.1c.007-.047.013-.092.02-.14,1.811-5.975,6.564-13.057,9.6-16.447a31.082,31.082,0,0,0,8.011-20.823C64.734,14.138,50.189-.054,32.266,0A31.875,31.875,0,0,0,0,31.654ZM32.367,17.266A14.57,14.57,0,0,0,17.655,31.654a2.943,2.943,0,0,1-5.885,0,20.4,20.4,0,0,1,20.6-20.143,2.878,2.878,0,1,1,0,5.755Z" fill="#72a05f"/>
</svg>
