<svg xmlns="http://www.w3.org/2000/svg" width="103.128" height="103.138" viewBox="0 0 103.128 103.138">
  <path id="Icon_ionic-ios-settings" data-name="Icon ionic-ios-settings" d="M75.252,43.059A9.924,9.924,0,0,1,81.618,33.8a39.335,39.335,0,0,0-4.76-11.467,10.057,10.057,0,0,1-4.037.864A9.9,9.9,0,0,1,63.764,9.26,39.216,39.216,0,0,0,52.317,4.5,9.915,9.915,0,0,1,33.8,4.5,39.335,39.335,0,0,0,22.334,9.26,9.9,9.9,0,0,1,13.276,23.2a9.729,9.729,0,0,1-4.037-.864A40.2,40.2,0,0,0,4.5,33.821a9.912,9.912,0,0,1,6.366,9.258A9.935,9.935,0,0,1,4.52,52.337,39.335,39.335,0,0,0,9.28,63.8,9.906,9.906,0,0,1,22.354,76.879a39.564,39.564,0,0,0,11.467,4.76,9.9,9.9,0,0,1,18.476,0,39.335,39.335,0,0,0,11.467-4.76A9.915,9.915,0,0,1,76.838,63.8,39.565,39.565,0,0,0,81.6,52.337,9.971,9.971,0,0,1,75.252,43.059ZM43.24,59.105A16.066,16.066,0,1,1,59.306,43.039,16.062,16.062,0,0,1,43.24,59.105Z" transform="matrix(0.899, -0.438, 0.438, 0.899, -6.017, 31.734)" fill="#72a05f"/>
</svg>
