<svg xmlns="http://www.w3.org/2000/svg" width="108.998" height="104.678" viewBox="0 0 108.998 104.678">
  <path id="Icon_awesome-leaf" data-name="Icon awesome-leaf" d="M80.217,1.426A2.285,2.285,0,0,0,76.06,1.25,25.186,25.186,0,0,1,54.044,14.1H42.295A28.206,28.206,0,0,0,14.1,42.3a29.04,29.04,0,0,0,.22,3.011C23.686,38.6,37.213,32.9,56.394,32.9a2.35,2.35,0,0,1,0,4.7C19.471,37.6,3.814,60.234.348,68.737a4.706,4.706,0,0,0,8.709,3.569A38.64,38.64,0,0,1,19.618,59,28.137,28.137,0,0,0,45.305,70.338c23.059-1.674,39.288-22.354,39.288-47.674A53.408,53.408,0,0,0,80.217,1.426Z" transform="matrix(0.899, -0.438, 0.438, 0.899, -0.003, 37.085)" fill="#72a05f"/>
</svg>
