<svg xmlns="http://www.w3.org/2000/svg" width="92.534" height="82.251" viewBox="0 0 92.534 82.251">
  <path id="Icon_awesome-hand-holding-heart" data-name="Icon awesome-hand-holding-heart" d="M44.224,40.242a2.8,2.8,0,0,0,4.1,0L65.814,21.9a13.316,13.316,0,0,0-.9-19.084C59.967-1.476,52.594-.7,48.064,4.05l-1.8,1.879L44.481,4.066C39.951-.7,32.578-1.476,27.63,2.813a13.33,13.33,0,0,0-.9,19.084ZM90.81,52.708a5.318,5.318,0,0,0-6.843,0L69.124,64.579A10.227,10.227,0,0,1,62.7,66.828h-19a2.57,2.57,0,1,1,0-5.14H56.272a5.348,5.348,0,0,0,5.349-4.273,5.146,5.146,0,0,0-5.076-6.008h-25.7a18.907,18.907,0,0,0-11.9,4.225l-7.47,6.056H2.57A2.578,2.578,0,0,0,0,64.258V79.68a2.578,2.578,0,0,0,2.57,2.57H59.887A10.294,10.294,0,0,0,66.312,80L90.6,60.563A5.138,5.138,0,0,0,90.81,52.708Z" transform="translate(0 0.001)" fill="#72a05f"/>
</svg>
