<svg xmlns="http://www.w3.org/2000/svg" width="68.719" height="67.992" viewBox="0 0 68.719 67.992">
  <path id="Icon_map-health" data-name="Icon map-health" d="M69.438,23.384a1.428,1.428,0,0,0-1.432-1.417H49.4a1.428,1.428,0,0,1-1.432-1.417V2.137A1.428,1.428,0,0,0,46.532.72H23.626a1.428,1.428,0,0,0-1.432,1.417V20.551a1.428,1.428,0,0,1-1.432,1.417H2.152A1.428,1.428,0,0,0,.72,23.384V46.048a1.428,1.428,0,0,0,1.432,1.417H20.763a1.428,1.428,0,0,1,1.432,1.417V67.3a1.428,1.428,0,0,0,1.432,1.417H46.532A1.428,1.428,0,0,0,47.964,67.3V48.881A1.428,1.428,0,0,1,49.4,47.465H68.007a1.428,1.428,0,0,0,1.432-1.417Z" transform="translate(-0.72 -0.72)" fill="#72a05f"/>
</svg>
